<svg height="460.8pt" viewBox="0 0 460.8 460.8" width="460.8pt" xmlns="http://www.w3.org/2000/svg" xmlns:xlink="http://www.w3.org/1999/xlink"><defs><style>*{stroke-linecap:butt;stroke-linejoin:round}</style></defs><g id="figure_1"><g id="patch_1"><path d="M0 460.8H460.8V0H0z" style="fill:#fff"/></g><g id="axes_1"><g id="patch_2"><path d="M120.89 418.84H450V24H120.89z" style="fill:#fff"/></g><g id="patch_3"><path clip-path="url(#p0573ff5fe2)" d="M120.89 400.892727h78.359524V325.325263H120.89z" style="fill:#1f77b4;opacity:.5"/></g><g id="patch_4"><path clip-path="url(#p0573ff5fe2)" d="M120.89 306.433397H368.341128V230.865933H120.89z" style="fill:#1f77b4;opacity:.5"/></g><g id="patch_5"><path clip-path="url(#p0573ff5fe2)" d="M120.89 211.974067H401.334612V136.406603H120.89z" style="fill:#1f77b4;opacity:.5"/></g><g id="patch_6"><path clip-path="url(#p0573ff5fe2)" d="M120.89 117.514737H434.328095V41.947273H120.89z" style="fill:#1f77b4;opacity:.5"/></g><g id="matplotlib.axis_1"><g id="xtick_1"><g id="line2d_1"><defs><path d="M0 0V3.5" id="m2acad468bf" style="stroke:#000;stroke-width:.8"/></defs><g><use style="stroke:#000;stroke-width:.8" x="120.89" xlink:href="#m2acad468bf" y="418.84"/></g></g><g id="text_1"><g transform="translate(117.70875 433.438438)scale(0.1 -0.1)"><defs><path d="M31.78125 66.40625q-7.609375.0-11.453125-7.5Q16.5 51.421875 16.5 36.375q0-14.984375 3.828125-22.484375 3.84375-7.5 11.453125-7.5 7.671875.0 11.5 7.5 3.84375 7.5 3.84375 22.484375.0 15.046875-3.84375 22.53125-3.828125 7.5-11.5 7.5zm0 7.8125q12.265625.0 18.734375-9.703125 6.46875-9.6875 6.46875-28.140625.0-18.40625-6.46875-28.109375-6.46875-9.6875-18.734375-9.6875-12.25.0-18.71875 9.6875Q6.59375 17.96875 6.59375 36.375q0 18.453125 6.46875 28.140625 6.46875 9.703125 18.71875 9.703125z" id="DejaVuSans-48"/></defs><use xlink:href="#DejaVuSans-48"/></g></g></g><g id="xtick_2"><g id="line2d_2"><g><use style="stroke:#000;stroke-width:.8" x="189.626424" xlink:href="#m2acad468bf" y="418.84"/></g></g><g id="text_2"><g transform="translate(180.082674 433.438438)scale(0.1 -0.1)"><defs><path d="M12.40625 8.296875H28.515625v55.625L10.984375 60.40625v8.984375l17.4375 3.515625H38.28125V8.296875H54.390625V0H12.40625z" id="DejaVuSans-49"/></defs><use xlink:href="#DejaVuSans-49"/><use x="63.623047" xlink:href="#DejaVuSans-48"/><use x="127.246094" xlink:href="#DejaVuSans-48"/></g></g></g><g id="xtick_3"><g id="line2d_3"><g><use style="stroke:#000;stroke-width:.8" x="258.362849" xlink:href="#m2acad468bf" y="418.84"/></g></g><g id="text_3"><g transform="translate(248.819099 433.438438)scale(0.1 -0.1)"><defs><path d="M19.1875 8.296875H53.609375V0H7.328125V8.296875Q12.9375 14.109375 22.625 23.890625 32.328125 33.6875 34.8125 36.53125q4.734375 5.3125 6.609375 9 1.890625 3.6875 1.890625 7.25.0 5.8125-4.078125 9.46875-4.078125 3.671875-10.625 3.671875-4.640625.0-9.796875-1.609375-5.140625-1.609375-11-4.890625v9.96875Q13.765625 71.78125 18.9375 73q5.1875 1.21875 9.484375 1.21875 11.328125.0 18.0625-5.671875 6.734375-5.65625 6.734375-15.125.0-4.5-1.6875-8.53125-1.671875-4.015625-6.125-9.484375-1.21875-1.421875-7.765625-8.1875Q31.109375 20.453125 19.1875 8.296875z" id="DejaVuSans-50"/></defs><use xlink:href="#DejaVuSans-50"/><use x="63.623047" xlink:href="#DejaVuSans-48"/><use x="127.246094" xlink:href="#DejaVuSans-48"/></g></g></g><g id="xtick_4"><g id="line2d_4"><g><use style="stroke:#000;stroke-width:.8" x="327.099273" xlink:href="#m2acad468bf" y="418.84"/></g></g><g id="text_4"><g transform="translate(317.555523 433.438438)scale(0.1 -0.1)"><defs><path d="M40.578125 39.3125Q47.65625 37.796875 51.625 33q3.984375-4.78125 3.984375-11.8125.0-10.78125-7.421875-16.703125-7.421875-5.90625-21.09375-5.90625-4.578125.0-9.4375.90625T7.625 2.203125V11.71875q4.09375-2.390625 8.96875-3.609375 4.890625-1.21875 10.21875-1.21875 9.265625.0 14.125 3.65625T45.796875 21.1875q0 6.453125-4.515625 10.078125-4.515625 3.640625-12.5625 3.640625h-8.5v8.109375h8.890625q7.265625.0 11.125 2.90625t3.859375 8.375q0 5.609375-3.984375 8.609375-3.96875 3.015625-11.390625 3.015625-4.0625.0-8.703125-.890625Q15.375 64.15625 9.8125 62.3125v8.78125q5.625 1.5625 10.53125 2.34375t9.25.78125q11.234375.0 17.765625-5.109375 6.546875-5.09375 6.546875-13.78125.0-6.0625-3.46875-10.234375T40.578125 39.3125z" id="DejaVuSans-51"/></defs><use xlink:href="#DejaVuSans-51"/><use x="63.623047" xlink:href="#DejaVuSans-48"/><use x="127.246094" xlink:href="#DejaVuSans-48"/></g></g></g><g id="xtick_5"><g id="line2d_5"><g><use style="stroke:#000;stroke-width:.8" x="395.835698" xlink:href="#m2acad468bf" y="418.84"/></g></g><g id="text_5"><g transform="translate(386.291948 433.438438)scale(0.1 -0.1)"><defs><path d="M37.796875 64.3125 12.890625 25.390625h24.90625zm-2.59375 8.59375h12.40625V25.390625h10.40625V17.1875H47.609375V0h-9.8125V17.1875H4.890625v9.515625z" id="DejaVuSans-52"/></defs><use xlink:href="#DejaVuSans-52"/><use x="63.623047" xlink:href="#DejaVuSans-48"/><use x="127.246094" xlink:href="#DejaVuSans-48"/></g></g></g><g id="text_6"><g transform="translate(238.259062 447.116563)scale(0.1 -0.1)"><defs><path d="M19.671875 34.8125V8.109375H35.5q7.953125.0 11.78125 3.296875Q51.125 14.703125 51.125 21.484375q0 6.84375-3.84375 10.078125-3.828125 3.25-11.78125 3.25zm0 29.984375V42.828125H34.28125q7.21875.0 10.75 2.703125Q48.578125 48.25 48.578125 53.8125q0 5.515625-3.546875 8.25-3.53125 2.734375-10.75 2.734375zM9.8125 72.90625H35.015625q11.28125.0 17.375-4.6875Q58.5 63.53125 58.5 54.890625q0-6.703125-3.125-10.65625T46.1875 39.3125Q53.46875 37.75 57.5 32.78125q4.03125-4.953125 4.03125-12.375.0-9.765625-6.640625-15.09375Q48.25.0 35.984375.0H9.8125z" id="DejaVuSans-66"/><path d="M9.421875 54.6875H18.40625V0H9.421875zm0 21.296875H18.40625V64.59375H9.421875z" id="DejaVuSans-105"/><path d="M54.890625 33.015625V0H45.90625V32.71875q0 7.765625-3.03125 11.609375Q39.84375 48.1875 33.796875 48.1875q-7.28125.0-11.484375-4.640625-4.203125-4.625-4.203125-12.640625V0H9.078125V54.6875h9.03125v-8.5q3.234375 4.9375 7.59375 7.375Q30.078125 56 35.796875 56q9.421875.0 14.25-5.828125 4.84375-5.828125 4.84375-17.15625z" id="DejaVuSans-110"/><path d="M34.28125 27.484375Q23.390625 27.484375 19.1875 25t-4.203125-8.5q0-4.78125 3.15625-7.59375 3.15625-2.796875 8.5625-2.796875 7.484375.0 12 5.296875T43.21875 25.484375v2zm17.921875 3.71875V0H43.21875V8.296875q-3.078125-4.96875-7.671875-7.34375T24.3125-1.421875q-8.390625.0-13.359375 4.71875Q6 8.015625 6 15.921875q0 9.21875 6.171875 13.90625 6.1875 4.6875 18.4375 4.6875H43.21875v.890625q0 6.203125-4.078125 9.59375T27.6875 48.390625q-4.6875.0-9.140625-1.125-4.4375-1.125-8.53125-3.375v8.3125q4.921875 1.90625 9.5625 2.84375Q24.21875 56 28.609375 56q11.875.0 17.734375-6.15625 5.859375-6.140625 5.859375-18.640625z" id="DejaVuSans-97"/><path d="M41.109375 46.296875q-1.515625.875-3.296875 1.28125Q36.03125 48 33.890625 48q-7.625.0-11.703125-4.953125T18.109375 28.8125V0H9.078125V54.6875h9.03125v-8.5q2.84375 4.984375 7.375 7.390625Q30.03125 56 36.53125 56q.921875.0 2.046875-.125 1.125-.109375 2.484375-.359375z" id="DejaVuSans-114"/><path d="M32.171875-5.078125Q28.375-14.84375 24.75-17.8125q-3.609375-2.984375-9.65625-2.984375H7.90625v7.515625H13.1875q3.703125.0 5.75 1.765625Q21-9.765625 23.484375-3.21875L25.09375.875 2.984375 54.6875H12.5L29.59375 11.921875 46.6875 54.6875h9.515625z" id="DejaVuSans-121"/><path id="DejaVuSans-32"/><path d="M53.515625 70.515625v-9.625q-5.609375 2.6875-10.59375 4-4.984375 1.328125-9.625 1.328125-8.046875.0-12.421875-3.125T16.5 54.203125q0-4.84375 2.90625-7.3125 2.90625-2.453125 11.015625-3.96875L36.375 41.703125q11.03125-2.109375 16.28125-7.40625t5.25-14.171875q0-10.609375-7.109375-16.078125-7.09375-5.46875-20.8125-5.46875Q24.8125-1.421875 18.96875-.25 13.140625.921875 6.890625 3.21875V13.375q6-3.359375 11.765625-5.078125Q24.421875 6.59375 29.984375 6.59375q8.4375.0 13.03125 3.3125 4.59375 3.328125 4.59375 9.484375.0 5.359375-3.296875 8.390625T33.5 32.328125L27.484375 33.5q-11.03125 2.1875-15.96875 6.875Q6.59375 45.0625 6.59375 53.421875q0 9.671875 6.8125 15.234375t18.765625 5.5625q5.140625.0 10.453125-.9375 5.328125-.921875 10.890625-2.765625z" id="DejaVuSans-83"/><path d="M5.515625 54.6875H48.1875V46.484375L14.40625 7.171875H48.1875V0H4.296875V8.203125l33.796875 39.3125H5.515625z" id="DejaVuSans-122"/><path d="M56.203125 29.59375V25.203125h-41.3125q.59375-9.28125 5.59375-14.140625t13.9375-4.859375q5.171875.0 10.03125 1.265625t9.65625 3.8125v-8.5Q49.265625.734375 44.1875-.34375T33.890625-1.421875q-13.09375.0-20.734375 7.609375-7.640625 7.625-7.640625 20.625.0 13.421875 7.25 21.296875Q20.015625 56 32.328125 56q11.03125.0 17.453125-7.109375 6.421875-7.09375 6.421875-19.296875zM47.21875 32.234375q-.09375 7.359375-4.125 11.75-4.03125 4.40625-10.671875 4.40625-7.515625.0-12.03125-4.25T15.1875 32.171875z" id="DejaVuSans-101"/><path d="M31 75.875q-6.53125-11.21875-9.71875-22.21875-3.171875-10.984375-3.171875-22.265625.0-11.265625 3.203125-22.328125T31-13.1875H23.1875Q15.875-1.703125 12.234375 9.375T8.59375 31.390625q0 10.890625 3.609375 21.921875 3.625 11.046875 10.984375 22.5625z" id="DejaVuSans-40"/><path d="M48.6875 27.296875q0 9.90625-4.078125 15.546875T33.40625 48.484375q-7.140625.0-11.21875-5.640625T18.109375 27.296875 22.1875 11.75 33.40625 6.109375q7.125.0 11.203125 5.640625T48.6875 27.296875zM18.109375 46.390625q2.84375 4.875 7.15625 7.234375Q29.59375 56 35.59375 56q9.96875.0 16.1875-7.90625 6.234375-7.90625 6.234375-20.796875T51.78125 6.484375q-6.21875-7.90625-16.1875-7.90625-6 0-10.328125 2.375-4.3125 2.375-7.15625 7.25V0H9.078125V75.984375h9.03125z" id="DejaVuSans-98"/><path d="M18.3125 70.21875V54.6875h18.5V47.703125h-18.5v-29.6875q0-6.6875 1.828125-8.59375t7.453125-1.90625H36.8125V0H27.59375Q17.1875.0 13.234375 3.875 9.28125 7.765625 9.28125 18.015625v29.6875H2.6875V54.6875H9.28125V70.21875z" id="DejaVuSans-116"/><path d="M44.28125 53.078125v-8.5Q40.484375 46.53125 36.375 47.5q-4.09375.984375-8.5.984375-6.6875.0-10.03125-2.046875T14.5 40.28125q0-3.125 2.390625-4.90625t9.625-3.390625l3.078125-.6875Q39.15625 29.25 43.1875 25.515625T47.21875 15.09375q0-7.625-6.03125-12.078125-6.03125-4.4375-16.578125-4.4375-4.390625.0-9.15625.859375T5.421875 2v9.28125q4.984375-2.59375 9.8125-3.890625Q20.0625 6.109375 24.8125 6.109375q6.34375.0 9.75 2.171875 3.421875 2.171875 3.421875 6.125.0 3.65625-2.46875 5.609375-2.453125 1.953125-10.8125 3.765625l-3.125.734375q-8.34375 1.75-12.0625 5.390625Q5.8125 33.546875 5.8125 39.890625q0 7.71875 5.46875 11.90625Q16.75 56 26.8125 56q4.96875.0 9.359375-.734375 4.40625-.71875 8.109375-2.1875z" id="DejaVuSans-115"/><path d="M8.015625 75.875h7.8125q7.3125-11.515625 10.953125-22.5625 3.640625-11.03125 3.640625-21.921875.0-10.9375-3.640625-22.015625T15.828125-13.1875h-7.8125Q14.5-2 17.703125 9.0625T20.90625 31.390625q0 11.28125-3.203125 22.265625-3.203125 11-9.6875 22.21875z" id="DejaVuSans-41"/></defs><use xlink:href="#DejaVuSans-66"/><use x="68.603516" xlink:href="#DejaVuSans-105"/><use x="96.386719" xlink:href="#DejaVuSans-110"/><use x="159.765625" xlink:href="#DejaVuSans-97"/><use x="221.044922" xlink:href="#DejaVuSans-114"/><use x="262.158203" xlink:href="#DejaVuSans-121"/><use x="321.337891" xlink:href="#DejaVuSans-32"/><use x="353.125" xlink:href="#DejaVuSans-83"/><use x="416.601562" xlink:href="#DejaVuSans-105"/><use x="444.384766" xlink:href="#DejaVuSans-122"/><use x="496.875" xlink:href="#DejaVuSans-101"/><use x="558.398438" xlink:href="#DejaVuSans-32"/><use x="590.185547" xlink:href="#DejaVuSans-40"/><use x="629.199219" xlink:href="#DejaVuSans-98"/><use x="692.675781" xlink:href="#DejaVuSans-121"/><use x="751.855469" xlink:href="#DejaVuSans-116"/><use x="791.064453" xlink:href="#DejaVuSans-101"/><use x="852.587891" xlink:href="#DejaVuSans-115"/><use x="904.6875" xlink:href="#DejaVuSans-41"/></g></g></g><g id="matplotlib.axis_2"><g id="ytick_1"><g id="line2d_6"><defs><path d="M0 0H-3.5" id="maeac573fee" style="stroke:#000;stroke-width:.8"/></defs><g><use style="stroke:#000;stroke-width:.8" x="120.89" xlink:href="#maeac573fee" y="363.108995"/></g></g><g id="text_7"><g transform="translate(39.822813 366.908214)scale(0.1 -0.1)"><defs><path d="M52 44.1875q3.375 6.0625 8.0625 8.9375T71.09375 56q8.546875.0 13.1875-5.984375 4.640625-5.96875 4.640625-17V0h-9.03125V32.71875q0 7.859375-2.796875 11.65625-2.78125 3.8125-8.484375 3.8125-6.984375.0-11.046875-4.640625-4.046875-4.625-4.046875-12.640625V0h-9.03125V32.71875q0 7.90625-2.78125 11.6875t-8.59375 3.78125q-6.890625.0-10.953125-4.65625-4.046875-4.65625-4.046875-12.625V0H9.078125V54.6875h9.03125v-8.5q3.078125 5.03125 7.375 7.421875T35.6875 56q5.96875.0 10.140625-3.03125Q50 49.953125 52 44.1875z" id="DejaVuSans-109"/><path d="M4.890625 31.390625h26.3125v-8H4.890625z" id="DejaVuSans-45"/><path d="M9.421875 75.984375H18.40625V0H9.421875z" id="DejaVuSans-108"/><path d="M37.109375 75.984375V68.5h-8.59375q-4.828125.0-6.71875-1.953125-1.875-1.953125-1.875-7.03125V54.6875H34.71875V47.703125H19.921875V0h-9.03125V47.703125H2.296875V54.6875h8.59375V58.5q0 9.125 4.25 13.296875 4.25 4.1875 13.46875 4.1875z" id="DejaVuSans-102"/></defs><use xlink:href="#DejaVuSans-97"/><use x="61.279297" xlink:href="#DejaVuSans-115"/><use x="113.378906" xlink:href="#DejaVuSans-109"/><use x="210.791016" xlink:href="#DejaVuSans-45"/><use x="246.875" xlink:href="#DejaVuSans-101"/><use x="308.398438" xlink:href="#DejaVuSans-108"/><use x="336.181641" xlink:href="#DejaVuSans-102"/><use x="371.386719" xlink:href="#DejaVuSans-32"/><use x="403.173828" xlink:href="#DejaVuSans-40"/><use x="442.1875" xlink:href="#DejaVuSans-49"/><use x="505.810547" xlink:href="#DejaVuSans-49"/><use x="569.433594" xlink:href="#DejaVuSans-52"/><use x="633.056641" xlink:href="#DejaVuSans-66"/><use x="701.660156" xlink:href="#DejaVuSans-41"/></g></g></g><g id="ytick_2"><g id="line2d_7"><g><use style="stroke:#000;stroke-width:.8" x="120.89" xlink:href="#maeac573fee" y="268.649665"/></g></g><g id="text_8"><g transform="translate(35.699375 272.448884)scale(0.1 -0.1)"><defs><path d="M30.609375 48.390625q-7.21875.0-11.421875-5.640625T14.984375 27.296875 19.15625 11.84375q4.1875-5.640625 11.453125-5.640625 7.1875.0 11.375 5.65625Q46.1875 17.53125 46.1875 27.296875q0 9.71875-4.203125 15.40625-4.1875 5.6875-11.375 5.6875zm0 7.609375q11.71875.0 18.40625-7.625 6.703125-7.609375 6.703125-21.078125.0-13.421875-6.703125-21.078125-6.6875-7.640625-18.40625-7.640625-11.765625.0-18.4375 7.640625-6.65625 7.65625-6.65625 21.078125.0 13.46875 6.65625 21.078125Q18.84375 56 30.609375 56z" id="DejaVuSans-111"/><path d="M18.109375 8.203125v-29H9.078125V54.6875h9.03125V46.390625q2.84375 4.875 7.15625 7.234375Q29.59375 56 35.59375 56q9.96875.0 16.1875-7.90625 6.234375-7.90625 6.234375-20.796875T51.78125 6.484375q-6.21875-7.90625-16.1875-7.90625-6 0-10.328125 2.375-4.3125 2.375-7.15625 7.25zM48.6875 27.296875q0 9.90625-4.078125 15.546875T33.40625 48.484375q-7.140625.0-11.21875-5.640625T18.109375 27.296875 22.1875 11.75 33.40625 6.109375q7.125.0 11.203125 5.640625T48.6875 27.296875z" id="DejaVuSans-112"/><path d="M33.015625 40.375q-6.640625.0-10.53125-4.546875-3.875-4.53125-3.875-12.4375.0-7.859375 3.875-12.4375 3.890625-4.5625 10.53125-4.5625t10.515625 4.5625q3.875 4.578125 3.875 12.4375.0 7.90625-3.875 12.4375Q39.65625 40.375 33.015625 40.375zM52.59375 71.296875V62.3125q-3.71875 1.75-7.5 2.671875-3.78125.9375-7.5.9375-9.765625.0-14.921875-6.59375-5.140625-6.59375-5.875-19.921875 2.875 4.25 7.21875 6.515625Q28.375 48.1875 33.59375 48.1875q10.984375.0 17.359375-6.671875 6.375-6.65625 6.375-18.125.0-11.234375-6.640625-18.03125-6.640625-6.78125-17.671875-6.78125-12.65625.0-19.34375 9.6875-6.6875 9.703125-6.6875 28.109375.0 17.28125 8.203125 27.5625T37.203125 74.21875q3.71875.0 7.5-.734375t7.890625-2.1875z" id="DejaVuSans-54"/></defs><use xlink:href="#DejaVuSans-97"/><use x="61.279297" xlink:href="#DejaVuSans-115"/><use x="113.378906" xlink:href="#DejaVuSans-109"/><use x="210.791016" xlink:href="#DejaVuSans-45"/><use x="248.75" xlink:href="#DejaVuSans-111"/><use x="309.931641" xlink:href="#DejaVuSans-112"/><use x="373.408203" xlink:href="#DejaVuSans-116"/><use x="412.617188" xlink:href="#DejaVuSans-32"/><use x="444.404297" xlink:href="#DejaVuSans-40"/><use x="483.417969" xlink:href="#DejaVuSans-51"/><use x="547.041016" xlink:href="#DejaVuSans-54"/><use x="610.664062" xlink:href="#DejaVuSans-48"/><use x="674.287109" xlink:href="#DejaVuSans-66"/><use x="742.890625" xlink:href="#DejaVuSans-41"/></g></g></g><g id="ytick_3"><g id="line2d_8"><g><use style="stroke:#000;stroke-width:.8" x="120.89" xlink:href="#maeac573fee" y="174.190335"/></g></g><g id="text_9"><g transform="translate(46.775938 177.989554)scale(0.1 -0.1)"><defs><path d="M48.78125 52.59375V44.1875q-3.8125 2.109375-7.640625 3.15625T33.40625 48.390625q-8.75.0-13.59375-5.546875-4.828125-5.53125-4.828125-15.546875t4.828125-15.5625q4.84375-5.53125 13.59375-5.53125 3.90625.0 7.734375 1.046875t7.640625 3.15625V2.09375q-3.765625-1.75-7.796875-2.625-4.015625-.890625-8.5625-.890625-12.359375.0-19.640625 7.765625-7.265625 7.765625-7.265625 20.953125.0 13.375 7.34375 21.03125Q20.21875 56 33.015625 56q4.140625.0 8.09375-.859375 3.953125-.84375 7.671875-2.546875z" id="DejaVuSans-99"/><path d="M31.78125 34.625q-7.03125.0-11.0625-3.765625-4.015625-3.765625-4.015625-10.34375.0-6.59375 4.015625-10.359375Q24.75 6.390625 31.78125 6.390625t11.078125 3.78125q4.0625 3.796875 4.0625 10.34375.0 6.578125-4.03125 10.34375Q38.875 34.625 31.78125 34.625zm-9.859375 4.1875q-6.34375 1.5625-9.890625 5.90625Q8.5 49.078125 8.5 55.328125q0 8.734375 6.21875 13.8125 6.234375 5.078125 17.0625 5.078125 10.890625.0 17.09375-5.078125t6.203125-13.8125q0-6.25-3.546875-10.609375Q48 40.375 41.703125 38.8125q7.125-1.65625 11.09375-6.5 3.984375-4.828125 3.984375-11.796875.0-10.609375-6.46875-16.28125-6.46875-5.65625-18.53125-5.65625-12.046875.0-18.53125 5.65625Q6.78125 9.90625 6.78125 20.515625q0 6.96875 4 11.796875 4.015625 4.84375 11.140625 6.5zM18.3125 54.390625q0-5.65625 3.53125-8.828125 3.546875-3.171875 9.9375-3.171875 6.359375.0 9.9375 3.171875 3.59375 3.171875 3.59375 8.828125.0 5.671875-3.59375 8.84375-3.578125 3.171875-9.9375 3.171875-6.390625.0-9.9375-3.171875-3.53125-3.171875-3.53125-8.84375z" id="DejaVuSans-56"/></defs><use xlink:href="#DejaVuSans-99"/><use x="54.980469" xlink:href="#DejaVuSans-45"/><use x="91.064453" xlink:href="#DejaVuSans-97"/><use x="152.34375" xlink:href="#DejaVuSans-115"/><use x="204.443359" xlink:href="#DejaVuSans-109"/><use x="301.855469" xlink:href="#DejaVuSans-32"/><use x="333.642578" xlink:href="#DejaVuSans-40"/><use x="372.65625" xlink:href="#DejaVuSans-52"/><use x="436.279297" xlink:href="#DejaVuSans-48"/><use x="499.902344" xlink:href="#DejaVuSans-56"/><use x="563.525391" xlink:href="#DejaVuSans-66"/><use x="632.128906" xlink:href="#DejaVuSans-41"/></g></g></g><g id="ytick_4"><g id="line2d_9"><g><use style="stroke:#000;stroke-width:.8" x="120.89" xlink:href="#maeac573fee" y="79.731005"/></g></g><g id="text_10"><g transform="translate(24.95875 83.530224)scale(0.1 -0.1)"><defs><path d="M2.984375 54.6875H12.5L29.59375 8.796875 46.6875 54.6875h9.515625L35.6875.0H23.484375z" id="DejaVuSans-118"/><path d="M10.796875 72.90625h38.71875v-8.3125h-29.6875V46.734375q2.140625.734375 4.28125 1.09375 2.15625.359375 4.3125.359375Q40.625 48.1875 47.75 41.5q7.140625-6.6875 7.140625-18.109375.0-11.765625-7.328125-18.296875-7.328125-6.515625-20.65625-6.515625-4.59375.0-9.359375.78125-4.75.78125-9.828125 2.34375V11.625q4.390625-2.390625 9.078125-3.5625t9.90625-1.171875q8.453125.0 13.375 4.4375 4.9375 4.4375 4.9375 12.0625.0 7.609375-4.9375 12.046875-4.921875 4.453125-13.375 4.453125-3.953125.0-7.890625-.875-3.921875-.875-8.015625-2.734375z" id="DejaVuSans-53"/></defs><use xlink:href="#DejaVuSans-97"/><use x="61.279297" xlink:href="#DejaVuSans-115"/><use x="113.378906" xlink:href="#DejaVuSans-109"/><use x="210.791016" xlink:href="#DejaVuSans-45"/><use x="246.875" xlink:href="#DejaVuSans-110"/><use x="310.253906" xlink:href="#DejaVuSans-97"/><use x="371.533203" xlink:href="#DejaVuSans-105"/><use x="399.316406" xlink:href="#DejaVuSans-118"/><use x="458.496094" xlink:href="#DejaVuSans-101"/><use x="520.019531" xlink:href="#DejaVuSans-32"/><use x="551.806641" xlink:href="#DejaVuSans-40"/><use x="590.820312" xlink:href="#DejaVuSans-52"/><use x="654.443359" xlink:href="#DejaVuSans-53"/><use x="718.066406" xlink:href="#DejaVuSans-54"/><use x="781.689453" xlink:href="#DejaVuSans-66"/><use x="850.292969" xlink:href="#DejaVuSans-41"/></g></g></g><g id="text_11"><g transform="translate(18.879063 291.575469)rotate(-90)scale(0.1 -0.1)"><defs><path d="M9.8125 72.90625h9.859375V8.296875h35.5V0H9.8125z" id="DejaVuSans-76"/><path d="M45.40625 27.984375q0 9.765625-4.03125 15.125-4.015625 5.375-11.296875 5.375-7.21875.0-11.25-5.375-4.03125-5.359375-4.03125-15.125.0-9.71875 4.03125-15.09375t11.25-5.375q7.28125.0 11.296875 5.375 4.03125 5.375 4.03125 15.09375zM54.390625 6.78125q0-13.953125-6.203125-20.765625-6.1875-6.8125-18.984375-6.8125-4.734375.0-8.9375.703125t-8.15625 2.171875V-9.1875q3.953125-2.140625 7.8125-3.15625Q23.78125-13.375 27.78125-13.375q8.84375.0 13.234375 4.609375t4.390625 13.9375V9.625q-2.78125-4.84375-7.125-7.234375T27.875.0Q17.828125.0 11.671875 7.65625q-6.15625 7.671875-6.15625 20.328125.0 12.6875 6.15625 20.34375Q17.828125 56 27.875 56q6.0625.0 10.40625-2.390625t7.125-7.21875V54.6875h8.984375z" id="DejaVuSans-103"/><path d="M8.5 21.578125V54.6875h8.984375V21.921875q0-7.765625 3.015625-11.65625 3.03125-3.875 9.09375-3.875 7.265625.0 11.484375 4.640625Q45.3125 15.671875 45.3125 23.6875v31h8.984375V0H45.3125V8.40625Q42.046875 3.421875 37.71875 1 33.40625-1.421875 27.6875-1.421875q-9.421875.0-14.3125 5.859375Q8.5 10.296875 8.5 21.578125zM31.109375 56z" id="DejaVuSans-117"/><path d="M45.40625 46.390625v29.59375h8.984375V0H45.40625V8.203125q-2.828125-4.875-7.15625-7.25-4.3125-2.375-10.375-2.375-9.90625.0-16.140625 7.90625-6.21875 7.921875-6.21875 20.8125t6.21875 20.796875Q17.96875 56 27.875 56q6.0625.0 10.375-2.375 4.328125-2.359375 7.15625-7.234375zM14.796875 27.296875q0-9.90625 4.078125-15.546875T30.078125 6.109375 41.296875 11.75q4.109375 5.640625 4.109375 15.546875T41.296875 42.84375q-4.09375 5.640625-11.21875 5.640625T18.875 42.84375 14.796875 27.296875z" id="DejaVuSans-100"/><path d="M9.8125 72.90625H24.515625l18.59375-49.609375L61.8125 72.90625H76.515625V0h-9.625V64.015625l-18.796875-50H38.1875l-18.796875 50V0H9.8125z" id="DejaVuSans-77"/><path d="M54.890625 33.015625V0H45.90625V32.71875q0 7.765625-3.03125 11.609375Q39.84375 48.1875 33.796875 48.1875q-7.28125.0-11.484375-4.640625-4.203125-4.625-4.203125-12.640625V0H9.078125V75.984375h9.03125V46.1875q3.234375 4.9375 7.59375 7.375Q30.078125 56 35.796875 56q9.421875.0 14.25-5.828125 4.84375-5.828125 4.84375-17.15625z" id="DejaVuSans-104"/></defs><use xlink:href="#DejaVuSans-76"/><use x="55.712891" xlink:href="#DejaVuSans-97"/><use x="116.992188" xlink:href="#DejaVuSans-110"/><use x="180.371094" xlink:href="#DejaVuSans-103"/><use x="243.847656" xlink:href="#DejaVuSans-117"/><use x="307.226562" xlink:href="#DejaVuSans-97"/><use x="368.505859" xlink:href="#DejaVuSans-103"/><use x="431.982422" xlink:href="#DejaVuSans-101"/><use x="493.505859" xlink:href="#DejaVuSans-32"/><use x="525.292969" xlink:href="#DejaVuSans-97"/><use x="586.572266" xlink:href="#DejaVuSans-110"/><use x="649.951172" xlink:href="#DejaVuSans-100"/><use x="713.427734" xlink:href="#DejaVuSans-32"/><use x="745.214844" xlink:href="#DejaVuSans-66"/><use x="813.818359" xlink:href="#DejaVuSans-117"/><use x="877.197266" xlink:href="#DejaVuSans-105"/><use x="904.980469" xlink:href="#DejaVuSans-108"/><use x="932.763672" xlink:href="#DejaVuSans-100"/><use x="996.240234" xlink:href="#DejaVuSans-32"/><use x="1028.027344" xlink:href="#DejaVuSans-77"/><use x="1114.306641" xlink:href="#DejaVuSans-101"/><use x="1175.830078" xlink:href="#DejaVuSans-116"/><use x="1215.039062" xlink:href="#DejaVuSans-104"/><use x="1278.417969" xlink:href="#DejaVuSans-111"/><use x="1339.599609" xlink:href="#DejaVuSans-100"/></g></g></g><g id="patch_7"><path d="M120.89 418.84V24" style="fill:none;stroke:#000;stroke-linecap:square;stroke-linejoin:miter;stroke-width:.8"/></g><g id="patch_8"><path d="M450 418.84V24" style="fill:none;stroke:#000;stroke-linecap:square;stroke-linejoin:miter;stroke-width:.8"/></g><g id="patch_9"><path d="M120.89 418.84H450" style="fill:none;stroke:#000;stroke-linecap:square;stroke-linejoin:miter;stroke-width:.8"/></g><g id="patch_10"><path d="M120.89 24H450" style="fill:none;stroke:#000;stroke-linecap:square;stroke-linejoin:miter;stroke-width:.8"/></g><g id="text_12"><g transform="translate(218.690313 18)scale(0.09 -0.09)"><defs><path d="M-.296875 72.90625H61.375v-8.3125H35.5V0H25.59375V64.59375H-.296875z" id="DejaVuSans-84"/><path d="M73.1875 49.21875 22.796875 31.296875 73.1875 13.484375V4.59375L10.59375 27.296875V35.40625L73.1875 58.109375z" id="DejaVuSans-60"/><path d="M9.078125 75.984375h9.03125v-44.875L44.921875 54.6875h11.46875l-29-25.578125L57.625.0H45.90625L18.109375 26.703125V0H9.078125z" id="DejaVuSans-107"/></defs><use xlink:href="#DejaVuSans-84"/><use x="57.958984" xlink:href="#DejaVuSans-105"/><use x="85.742188" xlink:href="#DejaVuSans-110"/><use x="149.121094" xlink:href="#DejaVuSans-121"/><use x="208.300781" xlink:href="#DejaVuSans-32"/><use x="240.087891" xlink:href="#DejaVuSans-83"/><use x="303.564453" xlink:href="#DejaVuSans-116"/><use x="342.773438" xlink:href="#DejaVuSans-97"/><use x="404.052734" xlink:href="#DejaVuSans-116"/><use x="443.261719" xlink:href="#DejaVuSans-105"/><use x="471.044922" xlink:href="#DejaVuSans-99"/><use x="526.025391" xlink:href="#DejaVuSans-32"/><use x="557.8125" xlink:href="#DejaVuSans-66"/><use x="626.416016" xlink:href="#DejaVuSans-105"/><use x="654.199219" xlink:href="#DejaVuSans-110"/><use x="717.578125" xlink:href="#DejaVuSans-97"/><use x="778.857422" xlink:href="#DejaVuSans-114"/><use x="819.970703" xlink:href="#DejaVuSans-121"/><use x="879.150391" xlink:href="#DejaVuSans-32"/><use x="910.9375" xlink:href="#DejaVuSans-83"/><use x="974.414062" xlink:href="#DejaVuSans-105"/><use x="1002.197266" xlink:href="#DejaVuSans-122"/><use x="1054.6875" xlink:href="#DejaVuSans-101"/><use x="1116.210938" xlink:href="#DejaVuSans-115"/><use x="1168.310547" xlink:href="#DejaVuSans-32"/><use x="1200.097656" xlink:href="#DejaVuSans-40"/><use x="1239.111328" xlink:href="#DejaVuSans-60"/><use x="1322.900391" xlink:href="#DejaVuSans-49"/><use x="1386.523438" xlink:href="#DejaVuSans-107"/><use x="1444.433594" xlink:href="#DejaVuSans-41"/></g></g></g></g><defs><clipPath id="p0573ff5fe2"><rect height="394.84" width="329.11" x="120.89" y="24"/></clipPath></defs></svg>